<?xml version="1.0" encoding="utf-8"?>

<!DOCTYPE svg PUBLIC "-//W3C//DTD SVG 1.1//EN" "http://www.w3.org/Graphics/SVG/1.1/DTD/svg11.dtd">
<svg version="1.1" id="Layer_1" xmlns="http://www.w3.org/2000/svg" xmlns:xlink="http://www.w3.org/1999/xlink" x="0px" y="0px"
	 viewBox="0 0 1822 1652.7" enable-background="new 0 0 1822 1652.7" xml:space="preserve">
<g id="Red_Heart">
</g>
<g>
	<path fill="#FF0000" enable-background="new    " d="M1777.895,367.276c-49.498-192.738-205.162-314.793-419.315-337.939
		c-18.615-2.012-36.719-2.987-54.37-2.987c-186.155,0-318.606,108.709-394.331,257.288
		C830.769,128.573,695.731,27.997,498.837,28.001c-13.03,0-26.345,0.441-39.919,1.336C263.09,42.245,94.865,159.347,41.864,387.62
		c-95.34,410.626,355.928,830.382,868.016,1238.731C1454.475,1220.773,1879.358,762.355,1777.895,367.276z"/>
	<g>
		<path fill="none" stroke="#FFFFFF" stroke-width="30" stroke-linecap="round" stroke-linejoin="round" stroke-miterlimit="10" d="
			M289.575,942.752h188.677l27.389-82.166l25.867,82.166h27.389l12.173,38.04l30.432-523.427l45.648,737.971l24.345-252.584
			l65.428-1.522c0,0,54.777-76.079,115.641,0l94.339-1.522l31.953-79.123l25.867,76.079l25.867,3.043l10.651,39.561l34.997-509.732
			l44.126,725.798l22.824-255.627l74.558,3.043c2.707-0.245,51.68-76.387,112.598-1.522l176.504-1.522"/>
		<circle fill="#FFFFFF" stroke="#FFFFFF" stroke-miterlimit="10" cx="1506.847" cy="938.4" r="25.578"/>
	</g>
</g>
</svg>
